<?xml version="1.0" encoding="utf-8"?>
<!-- Generator: Adobe Illustrator 16.0.0, SVG Export Plug-In . SVG Version: 6.00 Build 0)  -->
<!DOCTYPE svg PUBLIC "-//W3C//DTD SVG 1.1//EN" "http://www.w3.org/Graphics/SVG/1.1/DTD/svg11.dtd">
<svg version="1.1" xmlns="http://www.w3.org/2000/svg" xmlns:xlink="http://www.w3.org/1999/xlink" x="0px" y="0px" width="200px"
	 height="200px" viewBox="0 0 200 200" enable-background="new 0 0 200 200" xml:space="preserve">
<g id="Layer_1" display="none">
	
		<rect x="14.436" y="14.529" display="inline" fill="none" stroke="#231F20" stroke-miterlimit="10" width="169.941" height="169.941"/>
	
		<rect x="6.239" y="6.333" display="inline" fill="none" stroke="#231F20" stroke-miterlimit="10" width="186.334" height="186.334"/>
</g>
<g id="left_x5F_hand">
	<g>
		<path fill="#5AB206" d="M141.604,39.499v80.16h-8.535c-9.004-36.43-37.732-65.159-74.156-74.163v-5.997H141.604 M165.956,15.147
			H34.561v51.748c42.591,0,77.115,34.525,77.115,77.115h54.287V15.147H165.956z"/>
		<rect x="34.561" y="93.785" width="49.72" height="49.72"/>
		<path fill="#75B028" d="M43.358,174.62v-10.233h2.478h2.478v0.912c0,0.506,0.024,0.913,0.061,0.913
			c0.036,0,0.359-0.243,0.725-0.541c0.785-0.639,2.106-1.314,3.092-1.583c1.046-0.28,3.525-0.249,4.681,0.066
			c1.473,0.402,2.368,0.915,3.397,1.948c1.065,1.071,1.589,2.016,1.954,3.53c0.262,1.104,0.311,3.015,0.104,4.124
			c-0.584,3.085-2.825,5.319-5.997,5.976c-2.544,0.53-5.534-0.077-7.056-1.436c-0.274-0.244-0.53-0.443-0.567-0.443
			c-0.036,0-0.066,1.575-0.066,3.499v3.501h-2.648h-2.636V174.62L43.358,174.62z M54.475,176.696
			c1.583-0.713,2.454-2.423,2.454-4.823c0-2.336-0.737-3.857-2.235-4.62c-1.595-0.802-3.61-0.547-4.84,0.615
			c-0.949,0.901-1.425,2.235-1.425,4.005c0,2.648,1.145,4.531,3.05,5.018c0.183,0.048,0.822,0.072,1.413,0.061
			C53.714,176.934,54.085,176.872,54.475,176.696L54.475,176.696z M68.988,179.88c-2.186-0.171-3.659-1.084-4.432-2.722
			c-0.597-1.272-0.627-1.655-0.633-7.464v-5.302h2.63h2.63l0.037,5.145c0.042,5.051,0.049,5.15,0.286,5.748
			c0.317,0.785,0.579,1.113,1.133,1.411c0.39,0.205,0.615,0.237,1.687,0.237c1.139,0,1.284-0.025,1.79-0.293
			c0.688-0.358,1.253-1.01,1.57-1.802c0.238-0.591,0.244-0.7,0.274-5.527l0.031-4.925h2.684h2.685v7.479v7.483H78.68h-2.69v-0.863
			c0-0.477-0.025-0.865-0.056-0.865c-0.029,0-0.359,0.243-0.724,0.542C73.541,179.527,71.521,180.081,68.988,179.88L68.988,179.88z
			 M107.063,179.885c-1.796-0.125-3.338-0.754-4.14-1.667c-1.323-1.505-1.25-3.891,0.162-5.267c1.221-1.188,3.167-1.74,7.751-2.209
			c2.946-0.304,3.386-0.529,3.391-1.754c0-0.67-0.2-1.132-0.681-1.553c-0.915-0.802-3.201-0.882-4.525-0.164
			c-0.571,0.311-0.974,0.89-1.1,1.56l-0.075,0.4h-2.526h-2.526l0.073-0.51c0.104-0.701,0.415-1.512,0.815-2.113
			c1.256-1.895,4.36-2.892,8.445-2.721c2.52,0.102,4.17,0.527,5.466,1.399c0.835,0.561,1.396,1.304,1.699,2.241
			c0.231,0.711,0.231,0.832,0.195,5.661c-0.038,4.707-0.032,4.949,0.171,5.35c0.127,0.257,0.327,0.471,0.51,0.537
			c0.166,0.06,0.306,0.152,0.306,0.2s-1.256,0.085-2.795,0.085h-2.794l-0.231-0.699c-0.129-0.385-0.28-0.699-0.342-0.699
			c-0.06,0-0.299,0.164-0.529,0.357c-0.901,0.77-2.703,1.432-4.194,1.534c-0.443,0.03-0.956,0.066-1.134,0.087
			C108.286,179.953,107.652,179.928,107.063,179.885L107.063,179.885z M111.975,176.684c0.809-0.317,1.515-0.955,1.887-1.711
			c0.25-0.511,0.304-0.785,0.341-1.667c0.024-0.586,0-1.055-0.055-1.055s-0.376,0.099-0.718,0.219
			c-0.341,0.123-1.382,0.336-2.313,0.481c-1.852,0.286-2.473,0.464-2.99,0.858c-0.845,0.646-0.925,1.894-0.169,2.582
			c0.121,0.109,0.481,0.298,0.791,0.407C109.532,177.074,111.116,177.018,111.975,176.684L111.975,176.684z M19.341,169.02v-10.338
			h10.557h10.556v10.338v10.337h-2.91h-2.909v-8.348v-8.347h-4.736h-4.743v8.347v8.348h-2.904h-2.91V169.02z M83.745,171.873v-7.501
			l6.435,0.043c6.167,0.038,6.472,0.051,7.264,0.27c1.046,0.291,1.545,0.546,2.069,1.065c0.609,0.608,0.852,1.223,0.864,2.191
			c0.007,0.676-0.043,0.905-0.291,1.418c-0.494,1.006-1.449,1.699-2.795,2.033c-0.28,0.066-0.512,0.159-0.512,0.203
			c0,0.041,0.358,0.157,0.79,0.26c1.528,0.359,2.648,1.055,3.088,1.906c0.272,0.535,0.456,1.648,0.376,2.301
			c-0.193,1.552-1.118,2.46-3.049,3c-0.798,0.226-1.06,0.231-7.53,0.27l-6.703,0.036L83.745,171.873L83.745,171.873z
			 M94.435,176.246c0.694-0.227,1.066-0.64,1.121-1.256c0.091-1.076-0.566-1.685-2.027-1.873c-0.438-0.057-1.607-0.104-2.6-0.104
			l-1.802-0.006v1.729v1.729l2.447-0.043C93.09,176.398,94.185,176.33,94.435,176.246L94.435,176.246z M94.1,170.023
			c1.249-0.566,1.06-2.112-0.31-2.508c-0.226-0.066-1.37-0.146-2.539-0.183l-2.125-0.066v1.533v1.534l2.234-0.043
			C93.363,170.255,93.65,170.229,94.1,170.023L94.1,170.023z M126.177,173.328v-6.031h-2.959h-2.957v-1.455v-1.455h8.613h8.614
			v1.455v1.455h-2.965h-2.958v6.031v6.033h-2.691h-2.689L126.177,173.328L126.177,173.328z"/>
		<g>
			<path d="M139.704,180.993v-3.249c9.161-6.93,12.731-10.011,12.731-13.401c0-2.478-2.125-3.609-4.281-3.609
				c-2.757,0-4.882,1.132-6.362,2.823l-2.404-2.721c2.083-2.508,5.413-3.78,8.698-3.78c4.562,0,8.562,2.582,8.562,7.287
				c0,4.348-3.993,8.236-10.325,13.01h10.465v3.641H139.704z"/>
			<path d="M171.223,180.993v-5.338h-11.247v-3.324l9.692-14.923h5.694v14.605h3.146v3.642h-3.146v5.338H171.223z M171.223,161.118
				l-7.18,10.89h7.18V161.118z"/>
		</g>
	</g>
</g>
</svg>
