<?xml version="1.0" encoding="UTF-8"?>
<svg xmlns="http://www.w3.org/2000/svg" xmlns:xlink="http://www.w3.org/1999/xlink" width="1162.2047pt" height="532.9134pt" viewBox="0 0 1162.2047 532.9134" version="1.1">
<g id="surface1">
<path style=" stroke:none;fill-rule:nonzero;fill:rgb(11.743164%,36.187744%,69.981384%);fill-opacity:1;" d="M 240.625 392.691406 L 290.617188 192.386719 L 304 396.921875 L 360.117188 396.921875 L 343.007812 136.050781 L 255.425781 136.050781 L 212.484375 311.375 L 169.546875 136.050781 L 81.964844 136.050781 L 64.851562 396.921875 L 120.972656 396.921875 L 134.375 192.386719 L 184.347656 392.691406 Z M 990.339844 234.898438 L 1024.117188 234.898438 L 1035.871094 213.441406 L 1024.269531 192.363281 L 990.339844 192.363281 Z M 893.683594 234.898438 L 923.25 234.898438 L 923.25 319.363281 C 923.25 363.75 934.425781 396.863281 983.492188 396.863281 C 1001.242188 396.863281 1015.882812 392.40625 1024.152344 389.085938 L 1024.152344 341.640625 C 994.839844 347.121094 980.570312 348.972656 980.570312 309.898438 L 980.570312 135.992188 L 923.25 136.011719 L 923.25 192.363281 L 898.140625 192.363281 Z M 624.460938 311.484375 C 628.394531 360.652344 704.957031 352.125 738.101562 341.636719 L 746.332031 384.1875 C 668.84375 413.835938 565.441406 394.511719 565.441406 293.730469 C 565.441406 159.386719 757.457031 144.808594 757.457031 286.75 C 757.457031 297.46875 756.238281 306.972656 755.417969 311.484375 Z M 699.242188 268.546875 C 699.242188 213.03125 624.339844 212.285156 624.890625 268.546875 Z M 821.882812 246.421875 C 821.882812 220.851562 869.453125 229.085938 883.871094 234.898438 L 888.3125 192.371094 C 840.09375 177.449219 765.328125 188.585938 765.429688 252.027344 C 764.441406 314.609375 856.589844 306.074219 856.589844 335.855469 C 856.589844 367.285156 784.378906 351.1875 768.6875 341.640625 L 760.480469 384.199219 C 814.128906 407.878906 915.984375 402.644531 913.261719 331.480469 C 912.335938 262.464844 821.882812 274.683594 821.882812 246.421875 "/>
<path style=" stroke:none;fill-rule:nonzero;fill:rgb(92.829895%,7.922363%,25.473022%);fill-opacity:1;" d="M 422.566406 311.484375 C 426.503906 360.652344 503.0625 352.125 536.207031 341.636719 L 544.441406 384.1875 C 466.953125 413.835938 363.546875 394.511719 363.546875 293.730469 C 363.546875 159.386719 555.566406 144.808594 555.566406 286.75 C 555.566406 297.46875 554.347656 306.972656 553.527344 311.484375 Z M 497.351562 268.546875 C 497.351562 213.03125 422.449219 212.285156 422.996094 268.546875 Z M 497.351562 268.546875 "/>
<path style=" stroke:none;fill-rule:nonzero;fill:rgb(92.829895%,7.922363%,25.473022%);fill-opacity:1;" d="M 1054.707031 135.992188 L 1097.351562 213.441406 L 1054.707031 291.269531 L 1012.160156 291.269531 L 1054.792969 213.441406 L 1012.160156 135.992188 Z M 1054.707031 135.992188 "/>
</g>
</svg>
